<?xml version="1.0" encoding="utf-8"?>
<!-- Generator: Adobe Illustrator 22.0.1, SVG Export Plug-In . SVG Version: 6.00 Build 0)  -->
<svg version="1.1" xmlns="http://www.w3.org/2000/svg" xmlns:xlink="http://www.w3.org/1999/xlink" x="0px" y="0px"
	 viewBox="0 0 867 704" style="enable-background:new 0 0 867 704;" xml:space="preserve" id="map">
<style type="text/css">
	.st0{fill:none;stroke:#F90606;stroke-miterlimit:10;}
	.st1{fill:none;stroke:#F8B913;stroke-miterlimit:10;}
	.st2{fill:none;stroke:#A79EDB;stroke-miterlimit:10;}
	.st3{fill:none;stroke:#69A555;stroke-miterlimit:10;}
	.st4{fill:none;stroke:#0D539E;stroke-width:2;stroke-miterlimit:10;}
	.st5{fill:#FDFEFF;stroke:#F4F7F9;stroke-width:2;stroke-miterlimit:10;}
	.st6{fill:#FC0000;stroke:#FF0013;stroke-width:2;stroke-miterlimit:10;}
	.st7{fill:#FAFDFF;stroke:#FF0013;stroke-width:2;stroke-miterlimit:10;}
	.st8{fill:none;}
	.st9{font-family:'MyriadPro-Regular';}
	.st10{font-size:12px;}
</style>
<g id="Layer_1">
	
		<path id="red_1_" class="st0" d="M33.1,272.7l210.9,214l3.6,3.2l-5,3.7l-3.8,3.5l-115,115.7l6.6,7.1l116.3-116.7
			c0,0,16.2-10.3,18.3-8.4l273.9-0.1c0,0,9.8,0,19.5-7.2l45.2-44.5c0,0,6.8-9.8,7.8-17s-0.2-354.5-0.2-354.5H602l-0.2,348.8
			c0,0-1,13.2-7,18l-39.5,39c0,0-7.2,7.5-17.8,7.8s-74.2,0-74.2,0l-203,0.2c0,0-7.8-3-13-9.2S40.9,267,40.9,267L33.1,272.7z"/>
	
	
		<path id="yellow_1_" class="st1" d="M325,173.6l6.1-7.3l183,153.1c0,0,7.9,6.7,6.1,16.5l0.3,114.7c0,0,1.6,7.3,4,7.9l215,214
			c0,0,5.9,5.4,7.5,4.1l26.1,0.2v9.1h-27c0,0-8-0.4-13.3-5.2L515.6,462.3c0,0-3.6-3.6-4.4-9.7L510,333.1c0,0,1.2-3.2-4-6.4
			L325,173.6z"/>
	
	
		<path id="pink_1_" class="st2" d="M33.1,436.1v-9.4h151.8c0,0,9,0.2,13.1-7.7l29.6-53.9c0,0,6.7-8.7,16.1-9.4h186.7
			c0,0,6.2,0.1,5.4-7.9l2.2-196.3h8.9l-1.4,199.1c0,0-1.3,17.2-13.1,14.6L243.8,365c0,0-6.8,2.9-8.1,5.8l-31.1,56.1
			c0,0-8.7,9.7-16.4,8.3L33.1,436.1z"/>
	
	
		<path id="green_1_" class="st3" d="M352.7,664.6l6.6,8l37.2-37.2l15,13.6l7-7l-13.3-11.6c0,0-4-4.3-3.3-13.3s-1-197.4-1-197.4
			s1.3-6.3,5-9.3s33.9-42.9,33.9-42.9s2.3-3,8-2.7c5.6,0.3,274.3,0,274.3,0s10.7,0.5,16.7-8.2l106.7-106c0,0,2.7-0.7,4.7-9.3V68h-10
			v172c0,0-1.3,8.7-5.3,8.7l-8.7,8.7l-0.7-51.3l-9.3,0.7V266l-83.3,84c0,0-5,5.8-11.2,5l-277.1,0.3c0,0-9-2.7-12.6,6.3l-37,47
			c0,0-5,5.4-4.1,12.6l0.9,200.9c0,0-0.9,6.3-4.1,8.1L352.7,664.6z"/>
	
	<g id="start">
		<circle class="st4" cx="396.2" cy="490.4" r="5.1"/>
		<circle class="st5" cx="396.2" cy="490.4" r="3"/>
		<circle class="st4" cx="437.5" cy="360.2" r="5.1"/>
		<circle class="st5" cx="437.5" cy="360.2" r="3"/>
		<circle class="st4" cx="30.9" cy="262.1" r="10.3"/>
		<circle class="st5" cx="30.9" cy="262.1" r="6.1"/>
		
			<ellipse transform="matrix(0.9999 -1.020248e-02 1.020248e-02 0.9999 -4.4053 0.2551)" class="st4" cx="22.8" cy="431.9" rx="10.3" ry="10.3"/>
		<circle class="st5" cx="22.8" cy="431.9" r="6.1"/>
		<circle class="st4" cx="119.7" cy="623.2" r="10.3"/>
		<circle class="st5" cx="119.7" cy="623.2" r="6.1"/>
		<circle class="st4" cx="348.8" cy="674.7" r="10.3"/>
		<circle class="st5" cx="348.8" cy="674.7" r="6.1"/>
		<circle class="st4" cx="422.2" cy="652.8" r="10.3"/>
		<circle class="st5" cx="422.2" cy="652.8" r="6.1"/>
		<circle class="st4" cx="442.6" cy="141.1" r="10.3"/>
		<circle class="st5" cx="442.6" cy="141.1" r="6.1"/>
		<circle class="st4" cx="320.6" cy="163.3" r="10.3"/>
		<circle class="st5" cx="320.6" cy="163.3" r="6.1"/>
		<circle class="st4" cx="606.1" cy="61.5" r="10.3"/>
		<circle class="st5" cx="606.1" cy="61.5" r="6.1"/>
		<circle class="st4" cx="844.7" cy="57.7" r="10.3"/>
		<circle class="st5" cx="844.7" cy="57.7" r="6.1"/>
		<circle class="st4" cx="820.1" cy="196.1" r="10.3"/>
		<circle class="st5" cx="820.1" cy="196.1" r="6.1"/>
		<circle class="st4" cx="783.5" cy="681.8" r="10.3"/>
		<circle class="st5" cx="783.5" cy="681.8" r="6.1"/>
	</g>
	<g id="metro_sign">
		<path id="background" class="st6" d="M79.4,88c2.1-0.2,2.6-3.1,2.6-3.1s0.9-58.9,0-61.7s-4-3.1-4-3.1s-59.1,0-61.3,0
			s-2.8,3.8-2.8,3.8v61c0,2.8,2.1,3.1,2.1,3.1H79.4z"/>
		<polygon class="st7" points="31.6,34.8 38.5,34.8 47,60.8 56,34.8 63.5,34.8 75.6,72.8 68.3,72.8 59.5,46.7 51.2,72.8 43.9,72.8 
			35.2,46.5 26.6,72.8 19.1,72.8 		"/>
	</g>
	<g id="text">
		<g id="text_1_">
			<g>
				<path d="M114.7,76.5c-0.5,0-0.8,0-1.1,0s-0.7,0-1.1,0V61.4h-0.2l-6.2,14.9h-2.2l-6.2-14.9h-0.2v15.1h-2.3V56.8h2.9l6.8,16.3h0.2
					l6.8-16.3h2.9L114.7,76.5L114.7,76.5z"/>
				<path d="M122.2,76.5c-0.5,0-0.9,0-1.2,0s-0.7,0-1.2,0V56.8h2.5L122.2,76.5L122.2,76.5z"/>
				<path d="M139.2,74.3c0,0.4,0,0.8,0,1.1s0,0.7,0,1.1h-12V56.9h2.5v17.5L139.2,74.3L139.2,74.3z"/>
				<path d="M155.9,76.5c-0.4-1.1-0.7-2.1-1-2.8s-0.6-1.7-1-2.8h-7.8l-2,5.6h-2.6l7.3-19.7h2.4l7.3,19.7
					C158.5,76.5,155.9,76.5,155.9,76.5z M149.9,60c-0.4,1.2-0.8,2.2-1.1,3.1c-0.3,0.9-0.6,1.8-0.9,2.6c-0.3,0.9-0.7,1.9-1.1,3.1h6.4
					l-3.1-8.8L149.9,60L149.9,60z"/>
				<path d="M164.4,76.5c-0.5,0-0.9,0-1.2,0s-0.7,0-1.2,0V56.8h2.4l10.7,15.4h0.2V56.8h2.4v19.7h-2.4l-10.7-15.3h-0.2V76.5
					L164.4,76.5z"/>
				<path d="M210.1,76.5c-0.5,0-0.8,0-1.1,0s-0.7,0-1.1,0V61.4h-0.2l-6.2,14.9h-2.1l-6.2-14.9h-0.3v15.1h-2.3V56.8h2.9l6.8,16.3h0.2
					l6.8-16.3h2.9L210.1,76.5L210.1,76.5z"/>
				<path d="M227.3,74.3c0,0.4,0,0.8,0,1.1s0,0.7,0,1.1h-12.2V56.9h12.2v2.2h-9.8v6.3h9.3v2.2h-9.3v6.8L227.3,74.3L227.3,74.3z"/>
				<path d="M239.4,76.5c-0.5,0-0.9,0-1.2,0s-0.7,0-1.2,0V59h-6.4v-2.2h15.2V59h-6.4L239.4,76.5L239.4,76.5z"/>
				<path d="M252,68.8c0,1.6,0,2.9,0,3.9s0,2.3,0,3.9h-2.5V56.8h7.5c1.9,0,3.4,0.5,4.6,1.6c1.1,1.1,1.7,2.5,1.7,4.3
					c0,1.4-0.4,2.6-1.1,3.6s-1.7,1.7-2.9,2.1l4.6,8.2H261l-4.2-7.8L252,68.8L252,68.8z M252,59c0,1,0,1.9,0,2.7c0,0.7,0,1.5,0,2.2
					c0,0.7,0,1.6,0,2.7h4.9c1.3,0,2.2-0.3,2.9-1c0.7-0.7,1-1.6,1-2.8s-0.4-2.1-1.1-2.8s-1.7-1-3-1H252L252,59z"/>
				<path d="M282.8,59.2c1.6,1.9,2.4,4.4,2.4,7.5c0,3.2-0.8,5.7-2.4,7.5c-1.6,1.9-3.8,2.8-6.6,2.8s-5-0.9-6.7-2.8
					c-1.6-1.9-2.4-4.4-2.4-7.5c0-3.2,0.8-5.7,2.4-7.5c1.6-1.9,3.8-2.8,6.6-2.8S281.2,57.3,282.8,59.2z M271.4,60.8
					c-1.2,1.4-1.8,3.4-1.8,5.9c0,2.4,0.6,4.4,1.7,5.9c1.2,1.5,2.8,2.2,4.8,2.2s3.6-0.7,4.8-2.2s1.7-3.4,1.7-5.9s-0.6-4.4-1.7-5.9
					c-1.2-1.4-2.7-2.2-4.8-2.2C274.1,58.7,272.5,59.3,271.4,60.8z"/>
				<path d="M299.8,76.5c-0.5,0-0.9,0-1.2,0s-0.7,0-1.2,0V56.8h2.4l10.7,15.4h0.2V56.8h2.4v19.7h-2.4L300,61.2h-0.2V76.5z"/>
				<path d="M330.3,74.3c0,0.4,0,0.8,0,1.1s0,0.7,0,1.1h-12.2V56.9h12.2v2.2h-9.8v6.3h9.3v2.2h-9.3v6.8L330.3,74.3L330.3,74.3z"/>
				<path d="M342.4,76.5c-0.5,0-0.9,0-1.2,0s-0.7,0-1.2,0V59h-6.4v-2.2h15.2V59h-6.4V76.5L342.4,76.5z"/>
				<path d="M363.5,61c-0.4,1.5-0.8,2.8-1.2,4c-0.3,1.2-0.7,2.4-1.1,3.8s-0.7,2.6-1.1,3.8c-0.3,1.2-0.7,2.5-1.2,4h-2.3l-5.4-19.7
					h2.6l3.9,16h0.2l4.4-16h2.5l4.4,16h0.2l3.9-16h2.6l-5.4,19.7h-2.3L363.7,61H363.5z"/>
				<path d="M394.6,59.2c1.6,1.9,2.4,4.4,2.4,7.5c0,3.2-0.8,5.7-2.4,7.5S390.8,77,388,77s-5-0.9-6.7-2.8c-1.6-1.9-2.4-4.4-2.4-7.5
					c0-3.2,0.8-5.7,2.4-7.5c1.6-1.9,3.8-2.8,6.6-2.8S392.9,57.3,394.6,59.2z M383.2,60.8c-1.2,1.4-1.8,3.4-1.8,5.9
					c0,2.4,0.6,4.4,1.7,5.9c1.2,1.5,2.8,2.2,4.8,2.2s3.6-0.7,4.8-2.2s1.7-3.4,1.7-5.9s-0.6-4.4-1.7-5.9c-1.2-1.4-2.7-2.2-4.8-2.2
					C385.9,58.7,384.3,59.3,383.2,60.8z"/>
				<path d="M403.7,68.8c0,1.6,0,2.9,0,3.9s0,2.3,0,3.9h-2.5V56.8h7.5c1.9,0,3.4,0.5,4.6,1.6c1.1,1.1,1.7,2.5,1.7,4.3
					c0,1.4-0.4,2.6-1.1,3.6s-1.7,1.7-2.9,2.1l4.6,8.2h-2.9l-4.2-7.8L403.7,68.8L403.7,68.8L403.7,68.8z M403.7,59c0,1,0,1.9,0,2.7
					c0,0.7,0,1.5,0,2.2c0,0.7,0,1.6,0,2.7h4.9c1.3,0,2.2-0.3,2.9-1s1-1.6,1-2.8s-0.4-2.1-1.1-2.8s-1.7-1-3-1H403.7L403.7,59z"/>
				<path d="M422,76.5c-0.5,0-0.9,0-1.2,0s-0.7,0-1.2,0V56.8h2.5v9.6h0.2l8.6-9.6h3.1l-7.9,8.5l8.6,11.2h-3.2l-7.1-9.5l-2.4,2.6
					V76.5L422,76.5z"/>
			</g>
		</g>
	</g>
</g>
<g id="stops">
	<rect x="408.9" y="499.9" class="st8" width="78.2" height="17.1"/>
	<text transform="matrix(1 0 0 1 408.9092 508.4287)" class="st9 st10">Stop 1</text>
	<rect x="626" y="53.4" class="st8" width="81.1" height="13.8"/>
	<text transform="matrix(1 0 0 1 626 61.8838)" class="st9 st10">Last stop</text>
	<rect x="142" y="632.5" class="st8" width="59.1" height="22"/>
	<text id="First_stop" transform="matrix(1 0 0 1 141.9795 641.0449)" class="st9 st10">First stop</text>
</g>
</svg>
